<svg xmlns="http://www.w3.org/2000/svg" viewBox="0 0 24 24" aria-hidden="true">
<path fill="currentColor" d="M16.365 1.43c.04.474-.14.95-.447 1.338-.323.402-.86.73-1.365.686-.05-.46.165-.95.465-1.29.33-.4.91-.69 1.347-.734zm4.41 17.1c-.32.73-.7 1.41-1.14 2.05-.6.88-1.09 1.49-1.45 1.83-.58.56-1.21 1.2-2.08 1.21-.78.02-1.3-.39-2.27-.39-1 0-1.53.38-2.28.4-.86.02-1.52-.61-2.1-1.17-.73-.72-1.29-1.54-1.78-2.41-1.23-2.16-2.17-4.89-1.89-7.53.21-1.9.97-3.65 2.17-4.88.96-.99 2.16-1.59 3.42-1.61.82-.02 1.6.42 2.27.42.66 0 1.5-.52 2.52-.45.43.02 1.64.18 2.42 1.35-.09.06-1.44.85-1.43 2.53.02 2.02 1.77 2.69 1.8 2.7-.02.05-.28.96-.9 1.88-.56.82-1.18 1.64-2.12 1.66-.83.02-1.1-.53-2.08-.53-.97 0-1.28.52-2.08.54-.86.02-1.51-.88-2.08-1.7-.57-.82-1-2.1-.82-3.34.09-.66.34-1.3.75-1.8.56-.7 1.27-1.11 2.01-1.13.78-.02 1.51.48 2.26.48.73 0 1.45-.5 2.45-.46.94.04 1.84.49 2.41 1.24-1.05.69-1.69 1.76-1.56 3.19.14 1.66 1.18 2.61 1.26 2.68-.11.33-.23.66-.37.98z"/>
</svg>